<?xml version="1.0" standalone="no"?>
<!DOCTYPE svg PUBLIC "-//W3C//DTD SVG 20010904//EN"
 "http://www.w3.org/TR/2001/REC-SVG-20010904/DTD/svg10.dtd">
<svg version="1.0" xmlns="http://www.w3.org/2000/svg"
 width="256.000000pt" height="256.000000pt" viewBox="0 0 256.000000 256.000000"
 preserveAspectRatio="xMidYMid meet">
<metadata>
Created by potrace 1.14, written by Peter Selinger 2001-2017
</metadata>
<g transform="translate(0.000000,256.000000) scale(0.100000,-0.100000)"
fill="#000000" stroke="none">
<path d="M1140 2554 c-200 -26 -408 -102 -565 -207 -83 -56 -108 -77 -203
-170 -172 -170 -294 -396 -348 -647 -26 -119 -26 -381 0 -500 110 -512 494
-896 1006 -1006 119 -26 381 -26 500 0 513 111 895 493 1006 1006 26 119 26
381 0 500 -111 513 -494 896 -1006 1006 -73 15 -320 27 -390 18z m-758 -1213
c3 -169 10 -184 79 -196 51 -9 95 2 119 28 18 18 20 36 20 153 0 73 3 139 6
148 4 11 19 16 46 16 l39 0 -3 -159 c-3 -143 -5 -163 -24 -187 -34 -46 -84
-65 -166 -66 -167 0 -208 56 -208 289 0 116 3 123 50 123 l39 0 3 -149z m736
140 c62 -12 92 -44 92 -97 0 -25 -7 -50 -18 -64 -18 -22 -17 -23 10 -50 22
-23 28 -38 28 -72 0 -95 -46 -118 -234 -118 -113 0 -135 2 -140 16 -3 9 -6 96
-6 195 0 177 0 180 23 189 28 11 188 12 245 1z m612 -7 c0 -8 -5 -24 -10 -35
-10 -17 -22 -19 -130 -19 l-120 0 0 -50 0 -50 100 0 100 0 -13 -32 c-13 -33
-14 -33 -92 -36 -48 -2 -82 -8 -87 -15 -4 -7 -8 -29 -8 -49 l0 -38 130 0 c74
0 130 -4 130 -9 0 -5 -4 -21 -10 -36 l-10 -26 -157 3 -158 3 -3 197 c-2 181
-1 197 15 201 10 3 87 5 171 6 132 1 152 -1 152 -15z m468 -8 c42 -22 52 -44
52 -111 0 -46 -4 -60 -25 -80 -13 -14 -29 -25 -35 -25 -17 0 -12 -15 30 -86
22 -38 40 -72 40 -77 0 -4 -19 -7 -42 -5 -42 3 -44 4 -87 81 -41 72 -46 77
-77 77 -18 0 -44 -4 -58 -10 -23 -8 -25 -15 -28 -77 l-3 -68 -42 -3 -43 -3 0
195 c0 175 2 196 18 206 27 17 261 6 300 -14z"/>
<path d="M940 1370 l0 -50 85 0 c73 0 86 3 95 19 30 57 0 81 -101 81 l-79 0 0
-50z"/>
<path d="M958 1249 c-13 -7 -18 -23 -18 -54 l0 -45 95 0 c83 0 96 2 105 19 15
29 12 49 -10 71 -16 16 -33 20 -87 20 -38 0 -76 -5 -85 -11z"/>
<path d="M1970 1360 l0 -60 90 0 c97 0 110 7 110 64 0 45 -23 56 -116 56 l-84
0 0 -60z"/>
</g>
</svg>
